<svg width="396" height="349" viewBox="0 0 396 349" fill="none" xmlns="http://www.w3.org/2000/svg">
<g id="account/bro">
<g id="Plants">
<path id="Vector" d="M85.7107 219.703C85.7107 219.703 67.2507 234.363 58.4307 249.633C49.6107 264.903 49.8807 275.293 49.8807 275.293C49.8807 275.293 75.8807 256.663 81.8107 244.093C85.354 236.484 86.7046 228.038 85.7107 219.703Z" fill="#EE6C4D"/>
<path id="Vector_2" d="M7.7107 199.293C7.7107 199.293 3.7107 225.613 13.3507 241.813C22.9907 258.013 49.6807 274.833 49.6807 274.833C49.6807 274.833 53.5107 263.013 39.5507 245.043C25.5907 227.073 7.7107 199.293 7.7107 199.293Z" fill="#EE6C4D"/>
<path id="Vector_3" d="M51.0807 245.653C50.1895 231.116 45.7908 217.01 38.2607 204.543C25.6907 183.673 10.6307 162.543 7.0907 153.543C4.74236 147.327 2.84086 140.95 1.4007 134.463C1.4007 134.463 -3.8393 151.813 5.9507 174.903C15.7407 197.993 51.0807 245.653 51.0807 245.653Z" fill="#EE6C4D"/>
<path id="Vector_4" d="M50.1307 237.343C50.1307 237.343 64.9707 218.463 75.2207 196.883C85.4707 175.303 83.8307 152.883 83.8307 152.883C83.8307 152.883 64.5907 177.843 58.4707 197.293C54.5467 210.379 51.7564 223.778 50.1307 237.343V237.343Z" fill="#EE6C4D"/>
<path id="Vector_5" d="M47.2007 194.673C47.2007 194.673 43.7107 163.673 35.3507 146.463C26.9907 129.253 9.88069 102.673 9.88069 102.673C9.88069 102.673 7.78069 132.443 21.2307 156.193C34.6807 179.943 47.2007 194.673 47.2007 194.673Z" fill="#EE6C4D"/>
<path id="Vector_6" d="M46.5007 176.863C46.5007 176.863 63.9007 150.963 68.6507 132.433C73.4007 113.903 77.5407 82.5631 77.5407 82.5631C77.5407 82.5631 56.6907 103.903 51.5907 130.713C46.4907 157.523 46.5007 176.863 46.5007 176.863Z" fill="#EE6C4D"/>
<path id="Vector_7" d="M55.1407 65.0531C55.1407 65.0531 38.8107 77.0531 41.3907 102.373C43.9707 127.693 46.4507 136.183 46.4507 136.183C43.8807 118.883 55.1407 65.0531 55.1407 65.0531Z" fill="#EE6C4D"/>
<g id="Group" opacity="0.3">
<path id="Vector_8" opacity="0.3" d="M85.7107 219.703C85.7107 219.703 67.2507 234.363 58.4307 249.633C49.6107 264.903 49.8807 275.293 49.8807 275.293C49.8807 275.293 75.8807 256.663 81.8107 244.093C85.354 236.484 86.7046 228.038 85.7107 219.703Z" fill="white"/>
<path id="Vector_9" opacity="0.3" d="M7.7107 199.293C7.7107 199.293 3.7107 225.613 13.3507 241.813C22.9907 258.013 49.6807 274.833 49.6807 274.833C49.6807 274.833 53.5107 263.013 39.5507 245.043C25.5907 227.073 7.7107 199.293 7.7107 199.293Z" fill="white"/>
<path id="Vector_10" opacity="0.3" d="M51.0807 245.653C50.1895 231.116 45.7908 217.01 38.2607 204.543C25.6907 183.673 10.6307 162.543 7.0907 153.543C4.74236 147.327 2.84086 140.95 1.4007 134.463C1.4007 134.463 -3.8393 151.813 5.9507 174.903C15.7407 197.993 51.0807 245.653 51.0807 245.653Z" fill="white"/>
<path id="Vector_11" opacity="0.3" d="M50.1307 237.343C50.1307 237.343 64.9707 218.463 75.2207 196.883C85.4707 175.303 83.8307 152.883 83.8307 152.883C83.8307 152.883 64.5907 177.843 58.4707 197.293C54.5467 210.379 51.7564 223.778 50.1307 237.343V237.343Z" fill="white"/>
<path id="Vector_12" opacity="0.3" d="M47.2007 194.673C47.2007 194.673 43.7107 163.673 35.3507 146.463C26.9907 129.253 9.88069 102.673 9.88069 102.673C9.88069 102.673 7.78069 132.443 21.2307 156.193C34.6807 179.943 47.2007 194.673 47.2007 194.673Z" fill="white"/>
<path id="Vector_13" opacity="0.3" d="M46.5007 176.863C46.5007 176.863 63.9007 150.963 68.6507 132.433C73.4007 113.903 77.5407 82.5631 77.5407 82.5631C77.5407 82.5631 56.6907 103.903 51.5907 130.713C46.4907 157.523 46.5007 176.863 46.5007 176.863Z" fill="white"/>
<path id="Vector_14" opacity="0.3" d="M55.1407 65.0531C55.1407 65.0531 38.8107 77.0531 41.3907 102.373C43.9707 127.693 46.4507 136.183 46.4507 136.183C43.8807 118.883 55.1407 65.0531 55.1407 65.0531Z" fill="white"/>
</g>
<path id="Vector_15" d="M49.3807 283.293C49.3807 283.293 50.8807 279.293 50.8807 248.793C50.8807 218.293 46.8807 206.293 46.8807 176.293C46.8807 146.293 44.8807 118.293 44.8807 118.293" stroke="#EE6C4D" stroke-miterlimit="10"/>
<path id="Vector_16" d="M47.1007 191.723C47.1007 191.723 36.2207 168.293 31.6207 159.523C27.3607 151.393 22.4207 138.193 22.4207 138.193" stroke="#EE6C4D" stroke-miterlimit="10"/>
<path id="Vector_17" d="M23.2607 195.483C23.2607 195.483 47.5407 240.643 51.0807 245.653" stroke="#EE6C4D" stroke-miterlimit="10"/>
<path id="Vector_18" d="M50.8607 233.533L70.5107 186.703" stroke="#EE6C4D" stroke-miterlimit="10"/>
<path id="Vector_19" d="M27.4407 245.663C32.0407 253.183 50.8607 272.843 50.8607 272.843C50.8607 272.843 63.4007 259.463 71.3507 247.333" stroke="#EE6C4D" stroke-miterlimit="10"/>
<path id="Vector_20" d="M47.1007 172.483L59.2207 131.503" stroke="#EE6C4D" stroke-miterlimit="10"/>
<path id="Vector_21" d="M62.7507 278.003H35.3907V287.783H37.9707L41.3007 309.283H56.8407L60.1707 287.783H62.7507V278.003Z" fill="#EE6C4D"/>
<path id="Vector_22" opacity="0.3" d="M62.7507 278.003H35.3907V287.783H37.9707L41.3007 309.283H56.8407L60.1707 287.783H62.7507V278.003Z" fill="white"/>
</g>
<g id="Device">
<path id="Vector_23" d="M103.151 180.393C103.151 180.393 88.1507 181.223 84.0107 188.093C79.8707 194.963 85.2607 202.033 93.1607 204.953C101.061 207.873 103.781 206.613 104.821 204.743C105.861 202.873 103.151 180.393 103.151 180.393Z" fill="white" stroke="#263238" stroke-linecap="round" stroke-linejoin="round"/>
<path id="Vector_24" d="M391.881 223.293C391.881 223.293 383.881 223.693 357.771 202.823C331.661 181.953 330.071 169.913 291.541 149.823C253.011 129.733 234.541 127.753 233.341 132.163C232.141 136.573 232.941 321.613 237.761 325.623C242.581 329.633 273.881 327.623 298.361 323.623C322.841 319.623 349.361 322.423 358.571 325.623C367.781 328.823 395.071 337.293 395.071 337.293" fill="white"/>
<g id="Group_2">
<path id="Vector_25" d="M281.351 316.293C274.841 311.293 270.351 291.223 276.841 281.203C283.331 271.183 291.841 274.683 298.901 274.683C305.961 274.683 288.901 266.163 281.901 254.123C274.901 242.083 305.471 177.423 301.461 161.373C300.527 158.204 298.97 155.252 296.881 152.693C295.191 151.763 293.431 150.813 291.571 149.843C253.041 129.773 234.571 127.773 233.371 132.183C232.171 136.593 232.971 321.633 237.791 325.643C242.611 329.653 273.911 327.643 298.391 323.643C301.081 323.203 303.781 322.853 306.491 322.573C296.121 321.013 284.701 318.833 281.351 316.293Z" fill="#EE6C4D"/>
<path id="Vector_26" opacity="0.5" d="M281.351 316.293C274.841 311.293 270.351 291.223 276.841 281.203C283.331 271.183 291.841 274.683 298.901 274.683C305.961 274.683 288.901 266.163 281.901 254.123C274.901 242.083 305.471 177.423 301.461 161.373C300.527 158.204 298.97 155.252 296.881 152.693C295.191 151.763 293.431 150.813 291.571 149.843C253.041 129.773 234.571 127.773 233.371 132.183C232.171 136.593 232.971 321.633 237.791 325.643C242.611 329.653 273.911 327.643 298.391 323.643C301.081 323.203 303.781 322.853 306.491 322.573C296.121 321.013 284.701 318.833 281.351 316.293Z" fill="white"/>
</g>
<path id="Vector_27" d="M391.881 223.293C391.881 223.293 383.881 223.693 357.771 202.823C331.661 181.953 330.071 169.913 291.541 149.823C253.011 129.733 234.541 127.753 233.341 132.163C232.141 136.573 232.941 321.613 237.761 325.623C242.581 329.633 273.881 327.623 298.361 323.623C322.841 319.623 349.361 322.423 358.571 325.623C367.781 328.823 395.071 337.293 395.071 337.293" stroke="#263238" stroke-linecap="round" stroke-linejoin="round"/>
<path id="Vector_28" d="M98.5807 100.053C98.5807 100.053 86.3007 97.1431 80.8907 106.923C75.4807 116.703 89.0007 128.153 97.5407 130.863L98.5807 100.053Z" fill="#EE6C4D" stroke="#263238" stroke-linecap="round" stroke-linejoin="round"/>
<path id="Vector_29" d="M105.651 100.473C105.561 98.333 99.1107 99.573 97.9707 99.733C94.9822 100.127 92.2072 101.496 90.0756 103.628C87.9441 105.759 86.5751 108.534 86.1807 111.523C85.0107 120.523 93.5607 130.413 102.071 132.523L106.891 133.733C106.891 133.733 105.651 100.503 105.651 100.473Z" fill="white" stroke="#263238" stroke-linecap="round" stroke-linejoin="round"/>
<path id="Vector_30" d="M94.8807 225.973C94.8807 225.973 84.5507 226.383 82.4307 235.293C80.3107 244.203 93.5107 250.293 100.841 250.513L94.8807 225.973Z" fill="#EE6C4D" stroke="#263238" stroke-linecap="round" stroke-linejoin="round"/>
<path id="Vector_31" d="M103.571 223.683C103.031 222.013 95.2007 225.473 94.3307 225.853C92.0602 226.823 90.173 228.515 88.9617 230.666C87.7504 232.818 87.2825 235.309 87.6307 237.753C88.6907 245.133 97.6307 251.033 104.791 250.843L108.861 250.733C108.861 250.733 103.581 223.703 103.571 223.683Z" fill="white" stroke="#263238" stroke-linecap="round" stroke-linejoin="round"/>
<path id="Vector_32" d="M103.151 143.763C103.151 143.763 88.1507 144.593 84.0107 151.463C79.8707 158.333 85.2607 165.403 93.1607 168.323C101.061 171.243 103.781 169.983 104.821 168.113C105.861 166.243 103.151 143.763 103.151 143.763Z" fill="white" stroke="#263238" stroke-linecap="round" stroke-linejoin="round"/>
<g id="Vector_33">
<path d="M95.8807 190.383C95.8807 190.383 101.501 203.283 101.081 213.693C100.661 224.103 88.8007 227.213 84.4307 225.343C80.0607 223.473 78.1907 200.993 81.1007 193.503C84.0107 186.013 89.6407 185.383 89.6407 185.383" fill="white"/>
<path d="M95.8807 190.383C95.8807 190.383 101.501 203.283 101.081 213.693C100.661 224.103 88.8007 227.213 84.4307 225.343C80.0607 223.473 78.1907 200.993 81.1007 193.503C84.0107 186.013 89.6407 185.383 89.6407 185.383" stroke="#263238" stroke-linecap="round" stroke-linejoin="round"/>
</g>
<path id="Vector_34" d="M81.5107 202.663C81.5107 202.663 79.8807 215.773 79.8807 221.393C79.8807 227.013 81.1207 225.763 84.0407 218.893C86.9607 212.023 87.1307 196.623 81.5107 202.663Z" fill="#EE6C4D" stroke="#263238" stroke-linecap="round" stroke-linejoin="round"/>
<g id="Vector_35">
<path d="M95.8807 153.753C95.8807 153.753 101.501 166.653 101.081 177.063C100.661 187.473 88.8007 190.593 84.4307 188.713C80.0607 186.833 78.1907 164.363 81.1007 156.873C84.0107 149.383 89.6407 148.753 89.6407 148.753" fill="white"/>
<path d="M95.8807 153.753C95.8807 153.753 101.501 166.653 101.081 177.063C100.661 187.473 88.8007 190.593 84.4307 188.713C80.0607 186.833 78.1907 164.363 81.1007 156.873C84.0107 149.383 89.6407 148.753 89.6407 148.753" stroke="#263238" stroke-linecap="round" stroke-linejoin="round"/>
</g>
<path id="Vector_36" d="M81.5107 166.033C81.5107 166.033 79.8807 179.143 79.8807 184.763C79.8807 190.383 81.1207 189.133 84.0407 182.263C86.9607 175.393 87.1307 159.993 81.5107 166.033Z" fill="#EE6C4D" stroke="#263238" stroke-linecap="round" stroke-linejoin="round"/>
<path id="Vector_37" d="M334.071 319.983C331.595 310.964 330.376 301.646 330.451 292.293" stroke="#263238" stroke-linecap="round" stroke-linejoin="round"/>
<path id="Vector_38" d="M338.081 285.063C338.081 285.063 337.681 302.323 340.081 308.343" stroke="#263238" stroke-linecap="round" stroke-linejoin="round"/>
<path id="Vector_39" d="M285.501 269.413C285.501 269.413 301.961 280.653 321.621 280.653" stroke="#263238" stroke-linecap="round" stroke-linejoin="round"/>
<path id="Vector_40" d="M364.421 208.403C364.421 208.403 356.421 202.783 346.761 187.133C337.101 171.483 313.881 137.763 309.881 120.903C305.881 104.043 305.471 98.433 303.061 88.793C300.651 79.153 294.631 74.343 295.841 62.303C297.051 50.263 293.431 44.243 287.841 43.443C282.251 42.643 273.791 41.833 269.381 62.703C264.971 83.573 272.991 112.873 275.801 126.523C278.611 140.173 278.611 152.213 272.991 166.663C267.371 181.113 261.351 200.373 266.991 228.873C272.631 257.373 290.671 265.803 304.721 271.823" fill="white"/>
<g id="Group_3">
<path id="Vector_41" d="M285.661 136.713C283.771 113.593 276.221 91.4031 274.331 74.4131C272.861 61.1431 277.721 48.7431 279.921 43.9431C275.921 45.6131 271.921 50.3731 269.301 62.7031C264.881 83.5731 272.911 112.873 275.721 126.523C278.531 140.173 278.531 152.213 272.911 166.663C267.291 181.113 261.271 200.373 266.911 228.873C268.211 236.083 270.842 242.987 274.671 249.233C261.551 209.143 287.501 159.293 285.661 136.713Z" fill="#EE6C4D"/>
<path id="Vector_42" opacity="0.5" d="M285.661 136.713C283.771 113.593 276.221 91.4031 274.331 74.4131C272.861 61.1431 277.721 48.7431 279.921 43.9431C275.921 45.6131 271.921 50.3731 269.301 62.7031C264.881 83.5731 272.911 112.873 275.721 126.523C278.531 140.173 278.531 152.213 272.911 166.663C267.291 181.113 261.271 200.373 266.911 228.873C268.211 236.083 270.842 242.987 274.671 249.233C261.551 209.143 287.501 159.293 285.661 136.713Z" fill="white"/>
</g>
<path id="Vector_43" d="M364.421 208.403C364.421 208.403 356.421 202.783 346.761 187.133C337.101 171.483 313.881 137.763 309.881 120.903C305.881 104.043 305.471 98.433 303.061 88.793C300.651 79.153 294.631 74.343 295.841 62.303C297.051 50.263 293.431 44.243 287.841 43.443C282.251 42.643 273.791 41.833 269.381 62.703C264.971 83.573 272.991 112.873 275.801 126.523C278.611 140.173 278.611 152.213 272.991 166.663C267.371 181.113 261.351 200.373 266.991 228.873C272.631 257.373 290.671 265.803 304.721 271.823" stroke="#263238" stroke-linecap="round" stroke-linejoin="round"/>
<path id="Vector_44" d="M300.651 88.883C300.651 88.883 297.731 85.2431 289.721 89.6131" stroke="#263238" stroke-linecap="round" stroke-linejoin="round"/>
<path id="Vector_45" d="M290.451 93.6131C290.451 93.6131 296.281 89.9731 301.011 93.2531" stroke="#263238" stroke-linecap="round" stroke-linejoin="round"/>
<path id="Vector_46" d="M302.881 96.8931C300.341 97.1723 297.786 97.2926 295.231 97.2531" stroke="#263238" stroke-linecap="round" stroke-linejoin="round"/>
<path id="Vector_47" d="M295.261 70.4631L292.761 70.0031C290.18 69.5169 287.858 68.1278 286.208 66.0846C284.559 64.0415 283.692 61.4778 283.761 58.8531C283.827 56.4199 284.061 53.9942 284.461 51.5931C286.061 41.9631 286.461 38.3531 290.461 39.1531C294.461 39.9531 296.881 41.1531 296.881 46.3831C296.881 51.6131 295.261 70.4631 295.261 70.4631Z" fill="#EE6C4D" stroke="#263238" stroke-linecap="round" stroke-linejoin="round"/>
<path id="Vector_48" d="M262.111 45.363H107.711C103.983 45.363 100.961 48.3851 100.961 52.113V341.203C100.961 344.931 103.983 347.953 107.711 347.953H262.111C265.839 347.953 268.861 344.931 268.861 341.203V52.113C268.861 48.3851 265.839 45.363 262.111 45.363Z" fill="#EE6C4D" stroke="#263238" stroke-linecap="round" stroke-linejoin="round"/>
<path id="Vector_49" d="M262.111 39.6931H107.711C103.983 39.6931 100.961 42.7152 100.961 46.4431V335.533C100.961 339.261 103.983 342.283 107.711 342.283H262.111C265.839 342.283 268.861 339.261 268.861 335.533V46.4431C268.861 42.7152 265.839 39.6931 262.111 39.6931Z" fill="#263238" stroke="#263238" stroke-miterlimit="10"/>
<path id="Vector_50" d="M196.521 57.773H175.621C175.338 57.773 175.059 57.7174 174.798 57.6094C174.537 57.5014 174.3 57.343 174.1 57.1433C173.901 56.9437 173.742 56.7067 173.634 56.4458C173.526 56.185 173.471 55.9054 173.471 55.6231V55.6231C173.471 55.3412 173.526 55.0621 173.635 54.8018C173.743 54.5415 173.901 54.3051 174.101 54.1063C174.301 53.9075 174.538 53.75 174.799 53.6431C175.059 53.5361 175.339 53.4817 175.621 53.4831H196.521C197.088 53.4831 197.633 53.7085 198.034 54.1098C198.435 54.5112 198.661 55.0555 198.661 55.6231C198.662 55.9049 198.608 56.1843 198.501 56.4451C198.394 56.7059 198.236 56.9429 198.037 57.1427C197.839 57.3425 197.602 57.501 197.342 57.6092C197.082 57.7174 196.803 57.7731 196.521 57.773Z" fill="white"/>
<path id="Vector_51" d="M258.251 315.293H111.571V58.0131H146.341L150.251 61.2631C151.617 62.3959 153.336 63.015 155.111 63.0131H216.451C218.291 63.0066 220.066 62.3354 221.451 61.1231L224.981 58.0131H258.221L258.251 315.293Z" fill="#EE6C4D" stroke="#263238" stroke-linecap="round" stroke-linejoin="round"/>
<path id="Vector_52" d="M184.911 197.143C208.079 197.143 226.861 178.361 226.861 155.193C226.861 132.025 208.079 113.243 184.911 113.243C161.742 113.243 142.961 132.025 142.961 155.193C142.961 178.361 161.742 197.143 184.911 197.143Z" fill="white"/>
<g id="Group_4">
<path id="Vector_53" d="M180.121 113.293C180.121 113.293 175.791 111.563 165.191 116.753C154.591 121.943 148.971 129.303 153.511 135.753C158.051 142.203 165.411 142.243 169.511 147.873C173.611 153.503 167.721 159.653 163.181 169.173C158.641 178.693 166.601 184.263 173.311 186.423C180.021 188.583 180.541 181.183 188.111 168.633C195.681 156.083 184.431 134.633 180.971 126.633C177.511 118.633 180.121 113.293 180.121 113.293Z" fill="#263238" stroke="#263238" stroke-linecap="round" stroke-linejoin="round"/>
<path id="Vector_54" d="M173.731 128.563C173.731 128.563 166.391 129.263 164.641 132.063C162.891 134.863 167.441 135.203 167.441 135.203" stroke="white" stroke-linecap="round" stroke-linejoin="round"/>
<path id="Vector_55" d="M173.731 122.623C173.731 122.623 156.961 128.913 156.611 133.463C156.261 138.013 164.991 138.353 164.991 138.353" stroke="white" stroke-linecap="round" stroke-linejoin="round"/>
<path id="Vector_56" d="M179.681 169.113C179.681 169.113 170.791 180.553 165.811 184.223C160.831 187.893 159.471 192.883 162.061 195.483C164.651 198.083 163.461 198.313 179.251 199.613C195.041 200.913 203.481 197.883 208.671 192.913C213.861 187.943 216.451 183.823 216.451 179.713C216.451 175.603 198.281 165.873 192.011 165.873C185.741 165.873 179.681 169.113 179.681 169.113Z" fill="white" stroke="#263238" stroke-linecap="round" stroke-linejoin="round"/>
<path id="Vector_57" d="M180.981 178.633L172.761 188.803C172.761 188.803 176.221 191.393 176.871 190.313C177.521 189.233 180.551 183.613 180.551 183.613" stroke="#263238" stroke-linecap="round" stroke-linejoin="round"/>
<path id="Vector_58" d="M185.961 163.713C185.961 163.713 180.121 165.873 179.031 167.383C177.941 168.893 168.031 176.043 170.821 176.253C173.611 176.463 179.251 171.713 179.251 171.713C179.251 171.713 179.681 178.633 180.981 178.633C182.281 178.633 191.361 174.953 191.361 174.953C191.361 174.953 194.821 184.043 196.991 181.663C199.161 179.283 201.101 166.093 199.581 162.843C198.061 159.593 185.961 163.713 185.961 163.713Z" fill="#EE6C4D" stroke="#263238" stroke-linecap="round" stroke-linejoin="round"/>
<path id="Vector_59" d="M183.141 158.293V170.193C183.141 173.863 181.631 175.813 184.011 175.193C186.391 174.573 191.801 169.783 195.011 164.813C198.221 159.843 196.741 152.263 195.441 146.863C194.141 141.463 190.901 145.343 188.951 147.723C187.001 150.103 183.141 158.293 183.141 158.293Z" fill="white" stroke="#263238" stroke-linecap="round" stroke-linejoin="round"/>
<path id="Vector_60" d="M174.881 127.803L166.231 138.183C166.231 138.183 167.751 149.183 170.341 153.323C172.931 157.463 179.211 162.623 182.021 161.763C184.831 160.903 193.021 148.763 193.491 147.273C194.547 144.065 194.314 140.572 192.841 137.533C190.711 132.783 174.881 127.803 174.881 127.803Z" fill="white" stroke="#263238" stroke-linecap="round" stroke-linejoin="round"/>
<path id="Vector_61" d="M174.061 140.563C174.061 140.563 175.361 144.243 174.711 145.753C174.061 147.263 171.901 148.133 172.711 149.213C173.009 149.538 173.381 149.786 173.795 149.937C174.209 150.089 174.653 150.139 175.091 150.083" stroke="#263238" stroke-linecap="round" stroke-linejoin="round"/>
<path id="Vector_62" d="M174.711 153.543C174.711 153.543 179.471 154.413 180.331 151.593" stroke="#263238" stroke-linecap="round" stroke-linejoin="round"/>
<path id="Vector_63" d="M181.321 142.793C181.321 143.543 180.951 144.143 180.511 144.143C180.071 144.143 179.701 143.543 179.701 142.793C179.701 142.043 180.061 141.453 180.511 141.453C180.961 141.453 181.321 142.053 181.321 142.793Z" fill="#263238"/>
<path id="Vector_64" d="M173.881 143.843C173.881 144.593 173.521 145.193 173.071 145.193C172.621 145.193 172.261 144.593 172.261 143.843C172.261 143.093 172.621 142.503 173.071 142.503C173.521 142.503 173.881 143.103 173.881 143.843Z" fill="#263238"/>
<path id="Vector_65" d="M168.881 141.293C168.881 141.293 169.481 138.503 171.371 138.503C173.261 138.503 173.571 139.103 173.571 139.103" stroke="#263238" stroke-linecap="round" stroke-linejoin="round"/>
<path id="Vector_66" d="M176.771 138.363C176.917 137.603 177.351 136.929 177.983 136.482C178.615 136.034 179.395 135.849 180.161 135.963C182.951 136.363 183.051 137.963 183.051 137.963" stroke="#263238" stroke-linecap="round" stroke-linejoin="round"/>
<g id="Vector_67">
<path d="M172.551 123.043C172.551 123.043 173.631 134.293 183.791 140.133C193.951 145.973 198.721 153.323 195.471 162.413C192.221 171.503 188.551 179.503 197.201 185.123C205.851 190.743 215.801 188.583 222.731 179.283C229.661 169.983 230.451 156.283 223.091 144.353C215.731 132.423 213.341 127.203 208.591 120.073C203.841 112.943 189.591 111.803 182.061 112.443C179.974 112.542 177.957 113.223 176.238 114.409C174.518 115.595 173.165 117.238 172.331 119.153" fill="#263238"/>
<path d="M172.551 123.043C172.551 123.043 173.631 134.293 183.791 140.133C193.951 145.973 198.721 153.323 195.471 162.413C192.221 171.503 188.551 179.503 197.201 185.123C205.851 190.743 215.801 188.583 222.731 179.283C229.661 169.983 230.451 156.283 223.091 144.353C215.731 132.423 213.341 127.203 208.591 120.073C203.841 112.943 189.591 111.803 182.061 112.443C179.974 112.542 177.957 113.223 176.238 114.409C174.518 115.595 173.165 117.238 172.331 119.153" stroke="#263238" stroke-linecap="round" stroke-linejoin="round"/>
</g>
<path id="Vector_68" d="M176.531 125.073C176.531 125.073 173.381 134.163 188.411 139.753C203.441 145.343 220.561 145.693 221.611 158.623" stroke="white" stroke-linecap="round" stroke-linejoin="round"/>
<path id="Vector_69" d="M200.071 181.003C200.443 181.812 200.998 182.524 201.691 183.083" stroke="white" stroke-linecap="round" stroke-linejoin="round"/>
<path id="Vector_70" d="M187.361 139.403C187.361 139.403 200.991 147.403 202.361 157.573C203.281 164.223 200.131 171.023 199.541 176.303" stroke="white" stroke-linecap="round" stroke-linejoin="round"/>
<path id="Vector_71" d="M177.881 117.813C173.061 122.013 173.741 128.563 173.741 128.563" stroke="white" stroke-linecap="round" stroke-linejoin="round"/>
<path id="Vector_72" d="M182.471 115.293C181.721 115.534 180.992 115.835 180.291 116.193" stroke="white" stroke-linecap="round" stroke-linejoin="round"/>
</g>
<path id="Vector_73" d="M184.911 197.143C208.079 197.143 226.861 178.361 226.861 155.193C226.861 132.025 208.079 113.243 184.911 113.243C161.742 113.243 142.961 132.025 142.961 155.193C142.961 178.361 161.742 197.143 184.911 197.143Z" stroke="#263238" stroke-miterlimit="10"/>
<path id="Vector_74" d="M218.181 212.633H151.631C148.008 212.633 145.071 215.57 145.071 219.193V224.333C145.071 227.956 148.008 230.893 151.631 230.893H218.181C221.804 230.893 224.741 227.956 224.741 224.333V219.193C224.741 215.57 221.804 212.633 218.181 212.633Z" fill="white" stroke="#263238" stroke-linecap="round" stroke-linejoin="round"/>
<path id="Vector_75" d="M218.181 242.933H151.631C148.008 242.933 145.071 245.87 145.071 249.493V254.633C145.071 258.256 148.008 261.193 151.631 261.193H218.181C221.804 261.193 224.741 258.256 224.741 254.633V249.493C224.741 245.87 221.804 242.933 218.181 242.933Z" fill="white" stroke="#263238" stroke-linecap="round" stroke-linejoin="round"/>
<path id="Vector_76" d="M218.181 273.233H151.631C148.008 273.233 145.071 276.17 145.071 279.793V284.933C145.071 288.556 148.008 291.493 151.631 291.493H218.181C221.804 291.493 224.741 288.556 224.741 284.933V279.793C224.741 276.17 221.804 273.233 218.181 273.233Z" fill="#263238"/>
<path id="SIGN IN" d="M163.565 286.309C162.965 286.309 162.389 286.221 161.837 286.045C161.293 285.861 160.857 285.617 160.529 285.313C160.409 285.201 160.349 285.061 160.349 284.893C160.349 284.781 160.381 284.685 160.445 284.605C160.509 284.517 160.585 284.473 160.673 284.473C160.777 284.473 160.889 284.517 161.009 284.605C161.753 285.181 162.601 285.469 163.553 285.469C164.241 285.469 164.769 285.337 165.137 285.073C165.505 284.809 165.689 284.433 165.689 283.945C165.689 283.665 165.601 283.441 165.425 283.273C165.249 283.097 165.017 282.957 164.729 282.853C164.441 282.749 164.053 282.641 163.565 282.529C162.909 282.377 162.369 282.217 161.945 282.049C161.529 281.881 161.189 281.641 160.925 281.329C160.669 281.017 160.541 280.609 160.541 280.105C160.541 279.625 160.669 279.201 160.925 278.833C161.189 278.457 161.553 278.169 162.017 277.969C162.489 277.761 163.025 277.657 163.625 277.657C164.185 277.657 164.705 277.745 165.185 277.921C165.673 278.089 166.081 278.333 166.409 278.653C166.537 278.781 166.601 278.921 166.601 279.073C166.601 279.185 166.569 279.285 166.505 279.373C166.441 279.453 166.365 279.493 166.277 279.493C166.189 279.493 166.073 279.449 165.929 279.361C165.537 279.041 165.173 278.817 164.837 278.689C164.501 278.561 164.097 278.497 163.625 278.497C162.961 278.497 162.445 278.637 162.077 278.917C161.709 279.189 161.525 279.573 161.525 280.069C161.525 280.493 161.685 280.813 162.005 281.029C162.333 281.237 162.833 281.421 163.505 281.581C164.233 281.757 164.805 281.921 165.221 282.073C165.637 282.217 165.981 282.437 166.253 282.733C166.533 283.029 166.673 283.425 166.673 283.921C166.673 284.393 166.541 284.809 166.277 285.169C166.021 285.529 165.657 285.809 165.185 286.009C164.713 286.209 164.173 286.309 163.565 286.309ZM168.763 286.273C168.611 286.273 168.491 286.229 168.403 286.141C168.315 286.045 168.271 285.921 168.271 285.769V278.197C168.271 278.045 168.315 277.925 168.403 277.837C168.491 277.741 168.611 277.693 168.763 277.693C168.915 277.693 169.035 277.741 169.123 277.837C169.211 277.925 169.255 278.045 169.255 278.197V285.769C169.255 285.921 169.211 286.045 169.123 286.141C169.035 286.229 168.915 286.273 168.763 286.273ZM177.629 281.809C177.749 281.809 177.845 281.845 177.917 281.917C177.997 281.989 178.037 282.089 178.037 282.217V285.205C178.037 285.397 178.005 285.541 177.941 285.637C177.885 285.733 177.777 285.809 177.617 285.865C177.297 286.001 176.909 286.109 176.453 286.189C175.997 286.269 175.541 286.309 175.085 286.309C174.245 286.309 173.521 286.137 172.913 285.793C172.305 285.449 171.837 284.953 171.509 284.305C171.189 283.657 171.029 282.881 171.029 281.977C171.029 281.089 171.189 280.321 171.509 279.673C171.829 279.025 172.289 278.529 172.889 278.185C173.489 277.833 174.193 277.657 175.001 277.657C175.561 277.657 176.081 277.745 176.561 277.921C177.041 278.089 177.445 278.333 177.773 278.653C177.909 278.789 177.977 278.929 177.977 279.073C177.977 279.185 177.945 279.285 177.881 279.373C177.817 279.453 177.737 279.493 177.641 279.493C177.545 279.493 177.433 279.445 177.305 279.349C176.889 279.029 176.513 278.809 176.177 278.689C175.841 278.561 175.453 278.497 175.013 278.497C174.061 278.497 173.329 278.797 172.817 279.397C172.313 279.997 172.061 280.857 172.061 281.977C172.061 283.121 172.317 283.993 172.829 284.593C173.349 285.185 174.109 285.481 175.109 285.481C175.853 285.481 176.529 285.369 177.137 285.145V282.577H175.385C175.249 282.577 175.141 282.541 175.061 282.469C174.981 282.397 174.941 282.305 174.941 282.193C174.941 282.073 174.981 281.981 175.061 281.917C175.141 281.845 175.249 281.809 175.385 281.809H177.629ZM186.349 277.693C186.493 277.693 186.605 277.741 186.685 277.837C186.765 277.925 186.805 278.045 186.805 278.197V285.769C186.805 285.921 186.761 286.045 186.673 286.141C186.593 286.229 186.477 286.273 186.325 286.273C186.173 286.273 186.041 286.205 185.929 286.069L180.949 279.409V285.769C180.949 285.921 180.905 286.045 180.817 286.141C180.737 286.229 180.625 286.273 180.481 286.273C180.337 286.273 180.225 286.229 180.145 286.141C180.065 286.045 180.025 285.921 180.025 285.769V278.197C180.025 278.045 180.065 277.925 180.145 277.837C180.233 277.741 180.353 277.693 180.505 277.693C180.665 277.693 180.801 277.761 180.913 277.897L185.881 284.557V278.197C185.881 278.045 185.921 277.925 186.001 277.837C186.089 277.741 186.205 277.693 186.349 277.693ZM192.482 286.273C192.33 286.273 192.21 286.229 192.122 286.141C192.034 286.045 191.99 285.921 191.99 285.769V278.197C191.99 278.045 192.034 277.925 192.122 277.837C192.21 277.741 192.33 277.693 192.482 277.693C192.634 277.693 192.754 277.741 192.842 277.837C192.93 277.925 192.974 278.045 192.974 278.197V285.769C192.974 285.921 192.93 286.045 192.842 286.141C192.754 286.229 192.634 286.273 192.482 286.273ZM201.384 277.693C201.528 277.693 201.64 277.741 201.72 277.837C201.8 277.925 201.84 278.045 201.84 278.197V285.769C201.84 285.921 201.796 286.045 201.708 286.141C201.628 286.229 201.512 286.273 201.36 286.273C201.208 286.273 201.076 286.205 200.964 286.069L195.984 279.409V285.769C195.984 285.921 195.94 286.045 195.852 286.141C195.772 286.229 195.66 286.273 195.516 286.273C195.372 286.273 195.26 286.229 195.18 286.141C195.1 286.045 195.06 285.921 195.06 285.769V278.197C195.06 278.045 195.1 277.925 195.18 277.837C195.268 277.741 195.388 277.693 195.54 277.693C195.7 277.693 195.836 277.761 195.948 277.897L200.916 284.557V278.197C200.916 278.045 200.956 277.925 201.036 277.837C201.124 277.741 201.24 277.693 201.384 277.693Z" fill="white"/>
<path id="Vector_77" d="M205.131 102.713C201.59 102.713 198.194 101.307 195.691 98.8029C193.187 96.2993 191.781 92.9037 191.781 89.3631C191.781 85.8224 193.187 82.4268 195.691 79.9232C198.194 77.4196 201.59 76.0131 205.131 76.0131V76.0131C208.67 76.0157 212.063 77.4234 214.564 79.9267C217.066 82.43 218.471 85.8242 218.471 89.3631C218.471 92.902 217.066 96.2961 214.564 98.7994C212.063 101.303 208.67 102.71 205.131 102.713V102.713Z" fill="#263238"/>
<path id="Vector_78" d="M203.011 97.4331H206.261V89.2931H208.531L208.771 86.5731H206.261V85.0231C206.261 84.3731 206.391 84.1231 207.011 84.1231H208.771V81.2931H206.521C204.101 81.2931 203.011 82.3631 203.011 84.4031V86.5731H201.321V89.2931H203.011V97.4331Z" fill="white"/>
<path id="Vector_79" d="M164.211 102.713C160.674 102.708 157.283 101.299 154.784 98.7959C152.284 96.2928 150.881 92.9002 150.881 89.3631V89.3631C150.881 85.8224 152.287 82.4268 154.791 79.9232C157.294 77.4196 160.69 76.0131 164.231 76.0131C165.984 76.0131 167.72 76.3584 169.339 77.0293C170.959 77.7002 172.431 78.6835 173.671 79.9232C174.91 81.1628 175.894 82.6345 176.564 84.2542C177.235 85.8739 177.581 87.6099 177.581 89.3631V89.3631C177.581 91.1179 177.235 92.8555 176.563 94.4765C175.89 96.0975 174.905 97.5701 173.663 98.81C172.422 100.05 170.948 101.033 169.326 101.703C167.704 102.372 165.966 102.716 164.211 102.713V102.713Z" fill="#263238"/>
<path id="Vector_80" d="M157.101 93.8331C158.382 94.661 159.866 95.1195 161.391 95.1582C162.915 95.1968 164.421 94.8141 165.742 94.0522C167.063 93.2904 168.149 92.1788 168.879 90.8398C169.609 89.5008 169.956 87.9864 169.881 86.4631C170.452 86.0496 170.947 85.5384 171.341 84.9531C170.807 85.189 170.24 85.3441 169.661 85.4131C170.275 85.0503 170.735 84.4735 170.951 83.7931C170.38 84.1345 169.754 84.3747 169.101 84.5031C168.823 84.2149 168.491 83.9849 168.124 83.827C167.756 83.669 167.361 83.5861 166.961 83.5831C166.522 83.5838 166.088 83.6835 165.693 83.8749C165.298 84.0663 164.95 84.3443 164.678 84.6884C164.405 85.0325 164.213 85.4337 164.116 85.8621C164.02 86.2906 164.021 86.7353 164.121 87.1631C162.967 87.1087 161.837 86.8138 160.804 86.2971C159.77 85.7805 158.857 85.0536 158.121 84.1631C157.749 84.8046 157.635 85.5636 157.802 86.286C157.969 87.0084 158.405 87.6402 159.021 88.0531C158.558 88.0394 158.106 87.916 157.701 87.6931C157.694 88.3717 157.924 89.0314 158.351 89.5588C158.778 90.0862 159.376 90.4484 160.041 90.5831C159.611 90.7052 159.158 90.7224 158.721 90.6331C158.912 91.2087 159.277 91.7106 159.766 92.069C160.256 92.4274 160.844 92.6245 161.451 92.6331C160.84 93.1093 160.142 93.4603 159.395 93.6662C158.649 93.8721 157.869 93.9289 157.101 93.8331V93.8331Z" fill="white"/>
<path id="Vector_81" d="M189.601 323.163C189.601 322.503 189.405 321.857 189.038 321.308C188.671 320.758 188.149 320.33 187.539 320.077C186.929 319.825 186.257 319.758 185.609 319.887C184.961 320.016 184.366 320.334 183.899 320.801C183.432 321.268 183.114 321.864 182.985 322.512C182.856 323.159 182.922 323.831 183.175 324.441C183.428 325.052 183.856 325.573 184.405 325.94C184.954 326.307 185.6 326.503 186.261 326.503C187.146 326.503 187.996 326.151 188.622 325.525C189.249 324.899 189.601 324.049 189.601 323.163V323.163Z" fill="white"/>
</g>
</g>
</svg>
